<svg width="80" height="80" viewBox="0 0 80 80" fill="none" xmlns="http://www.w3.org/2000/svg">
<path d="M58.75 70.625H21.25C19.9545 70.625 18.9062 69.5767 18.9062 68.2812V40C18.9062 28.3683 28.3683 18.9062 40 18.9062C51.6689 18.9062 61.0938 28.3908 61.0938 40V68.2812C61.0938 69.5767 60.0455 70.625 58.75 70.625Z" fill="#F94144"/>
<path d="M58.75 70.625C60.0455 70.625 61.0938 69.5767 61.0938 68.2812V40C61.0938 28.3908 51.6689 18.9062 40 18.9062V70.625H58.75Z" fill="#DE070B"/>
<path d="M63.4375 77.6562H16.5625C15.267 77.6562 14.2188 76.608 14.2188 75.3125V68.2812C14.2188 66.9858 15.267 65.9375 16.5625 65.9375H63.4375C64.733 65.9375 65.7812 66.9858 65.7812 68.2812V75.3125C65.7812 76.608 64.733 77.6562 63.4375 77.6562Z" fill="#142339"/>
<path d="M63.4375 65.9375H40V77.6562H63.4375C64.733 77.6562 65.7812 76.608 65.7812 75.3125V68.2812C65.7812 66.9858 64.733 65.9375 63.4375 65.9375Z" fill="#142339" fill-opacity="0.6"/>
<path d="M40 56.4062C41.2944 56.4062 42.3438 55.3569 42.3438 54.0625C42.3438 52.7681 41.2944 51.7188 40 51.7188C38.7056 51.7188 37.6562 52.7681 37.6562 54.0625C37.6562 55.3569 38.7056 56.4062 40 56.4062Z" fill="#FFDF40"/>
<path d="M40 47.0312C38.7045 47.0312 37.6562 45.983 37.6562 44.6875V35.3125C37.6562 34.017 38.7045 32.9688 40 32.9688C41.2955 32.9688 42.3438 34.017 42.3438 35.3125V44.6875C42.3438 45.983 41.2955 47.0312 40 47.0312Z" fill="#FFDF40"/>
<path d="M7.1875 42.3438H2.34375C1.04828 42.3438 0 41.2955 0 40C0 38.7045 1.04828 37.6562 2.34375 37.6562H7.1875C8.48297 37.6562 9.53125 38.7045 9.53125 40C9.53125 41.2955 8.48297 42.3438 7.1875 42.3438Z" fill="#FFD939"/>
<path d="M77.6562 42.3438H72.8125C71.517 42.3438 70.4688 41.2955 70.4688 40C70.4688 38.7045 71.517 37.6562 72.8125 37.6562H77.6562C78.9517 37.6562 80 38.7045 80 40C80 41.2955 78.9517 42.3438 77.6562 42.3438Z" fill="#FFD939"/>
<path d="M40 9.53125C38.7045 9.53125 37.6562 8.48297 37.6562 7.1875V2.34375C37.6562 1.04828 38.7045 0 40 0C41.2955 0 42.3438 1.04828 42.3438 2.34375V7.1875C42.3438 8.48297 41.2955 9.53125 40 9.53125Z" fill="#FFD939"/>
<path d="M15.139 18.4553L11.8248 15.1411C10.9093 14.2256 10.9093 12.7423 11.8248 11.8269C12.7403 10.9114 14.2235 10.9114 15.139 11.8269L18.4532 15.1411C19.3687 16.0565 19.3687 17.5398 18.4532 18.4553C17.5376 19.3708 16.0545 19.3709 15.139 18.4553Z" fill="#FFD939"/>
<path d="M61.5468 18.4553C60.6314 17.5398 60.6314 16.0565 61.5468 15.1411L64.861 11.8269C65.7765 10.9114 67.2598 10.9114 68.1753 11.8269C69.0907 12.7423 69.0907 14.2256 68.1753 15.1411L64.861 18.4553C63.9456 19.3708 62.4625 19.3709 61.5468 18.4553Z" fill="#FFD939"/>
<path d="M72.8125 80H7.1875C5.89203 80 4.84375 78.9517 4.84375 77.6562C4.84375 76.3608 5.89203 75.3125 7.1875 75.3125H72.8125C74.108 75.3125 75.1562 76.3608 75.1562 77.6562C75.1562 78.9517 74.108 80 72.8125 80Z" fill="#1B2F4D"/>
<path d="M42.3438 7.1875V2.34375C42.3438 1.04828 41.2955 0 40 0V9.53125C41.2955 9.53125 42.3438 8.48297 42.3438 7.1875Z" fill="#FFD939"/>
<path d="M72.8125 75.3125H40V80H72.8125C74.108 80 75.1562 78.9517 75.1562 77.6562C75.1562 76.3608 74.108 75.3125 72.8125 75.3125Z" fill="#1B2F4D"/>
<path d="M42.3438 54.0625C42.3438 52.7678 41.2944 51.7188 40 51.7188V56.4062C41.2944 56.4062 42.3438 55.3569 42.3438 54.0625Z" fill="#FFD939"/>
<path d="M42.3438 44.6875V35.3125C42.3438 34.017 41.2955 32.9688 40 32.9688V47.0312C41.2955 47.0312 42.3438 45.983 42.3438 44.6875Z" fill="#FFD939"/>
</svg>
