<svg width="80" height="80" viewBox="0 0 80 80" fill="none" xmlns="http://www.w3.org/2000/svg">
<path d="M65.0335 15.7412C59.5453 5.95027 49.4398 -0.00317217 38.4375 0.00635908C22.8881 0.0204216 10.5239 11.6471 8.34183 25.7823C6.9548 34.7751 9.5412 43.8228 15.4395 50.6023C17.0256 52.4265 17.6596 54.7245 17.1745 56.9057L12.0771 79.9935H38.4375H44.8142L47.9384 70.4623H68.9062V56.3998L66.5625 54.056L68.9062 51.7123V47.0248H80L65.0335 15.7412Z" fill="#FFD9B3"/>
<path d="M47.9384 70.4623H68.9062V56.3998L66.5625 54.056L68.9062 51.7123V47.0248H80L65.0336 15.7412C59.5453 5.95027 49.4398 -0.00317217 38.4375 0.00635908V79.9935H44.8142L47.9384 70.4623Z" fill="#FFBB99"/>
<path d="M54.0334 19.7696C52.9005 17.2382 50.6827 15.3179 48.0139 14.5626C45.8327 11.4313 42.2553 9.52478 38.4375 9.52478C34.6197 9.52478 31.0423 11.4313 28.8611 14.5624C26.1923 15.3178 23.9745 17.2381 22.8416 19.7695C19.5089 21.2756 17.3438 24.5601 17.3438 28.2748C17.3438 31.6393 19.1725 34.7109 22.0312 36.3635V47.0248H36.0938V39.9935C36.0938 38.7004 37.1444 37.6498 38.4375 37.6498H50.1562C55.3267 37.6498 59.5312 33.4453 59.5312 28.2748C59.5312 24.5601 57.3661 21.2756 54.0334 19.7696Z" fill="#F94144"/>
<path d="M59.5312 28.2748C59.5312 24.5601 57.3661 21.2756 54.0334 19.7695C52.9005 17.2381 50.6827 15.3177 48.0139 14.5624C45.8327 11.4313 42.2553 9.52478 38.4375 9.52478V37.6498H50.1562C55.3267 37.6498 59.5312 33.4452 59.5312 28.2748Z" fill="#DE070B"/>
<path d="M64.2188 51.7123C59.0483 51.7123 54.8438 55.9169 54.8438 61.0873H59.5312C59.5312 58.5033 61.6347 56.3998 64.2188 56.3998H68.9062V51.7123H64.2188Z" fill="#F94144"/>
<path d="M73.5312 18.2133L70.217 14.899L73.2473 11.8686L68.5598 7.18108L74.9045 0.836548L78.2187 4.15077L75.1882 7.18108L79.8757 11.8686L73.5312 18.2133Z" fill="#FFD939"/>
<path d="M6.34453 18.2133L0 11.8686L4.6875 7.18108L1.65703 4.15077L4.97125 0.836548L11.3159 7.18108L6.62844 11.8686L9.65875 14.899L6.34453 18.2133Z" fill="#FFE266"/>
<path d="M51.5181 23.8207L50.3188 23.45L49.9617 22.2461C49.4513 20.5226 47.9728 19.2293 46.1966 18.9548L45.0773 18.7809L44.5189 17.7967C43.2623 15.5857 40.9323 14.2125 38.4375 14.2125C35.9427 14.2125 33.6127 15.5857 32.3561 17.7967L31.7977 18.7809L30.6784 18.9548C28.9023 19.2295 27.4237 20.5226 26.9133 22.2461L26.5563 23.45L25.3569 23.8207C23.368 24.4318 22.0312 26.2218 22.0312 28.2748C22.0312 30.2364 23.2878 32.0032 25.16 32.667L26.7188 33.2209V42.3373H31.4062V39.9936C31.4062 36.1164 34.5603 32.9623 38.4375 32.9623H42.085C41.2777 31.5779 40.7812 29.99 40.7812 28.2748H45.4688C45.4688 30.8589 47.5722 32.9623 50.1562 32.9623C52.7403 32.9623 54.8438 30.8589 54.8438 28.2748C54.8438 26.2218 53.507 24.4318 51.5181 23.8207ZM38.4375 25.0359C36.718 27.004 34.2198 28.2748 31.4062 28.2748V23.5873C33.9903 23.5873 36.0938 21.4839 36.0938 18.8998H38.4375H40.7812C40.7812 21.2567 39.878 23.387 38.4375 25.0359Z" fill="#FFD939"/>
<path d="M40.7812 28.2748H45.4688C45.4688 30.8589 47.5722 32.9623 50.1562 32.9623C52.7403 32.9623 54.8438 30.8589 54.8438 28.2748C54.8438 26.2217 53.507 24.4318 51.5181 23.8207L50.3188 23.45L49.9617 22.2461C49.4513 20.5226 47.9728 19.2293 46.1966 18.9548L45.0773 18.7809L44.5189 17.7967C43.2623 15.5857 40.9323 14.2125 38.4375 14.2125V18.9H40.7812C40.7812 21.2568 39.878 23.3872 38.4375 25.0361V32.9625H42.085C41.2777 31.5779 40.7812 29.99 40.7812 28.2748Z" fill="#FF884D"/>
</svg>
