<svg width="100" height="100" viewBox="0 0 100 100" fill="none" xmlns="http://www.w3.org/2000/svg">
<path fill-rule="evenodd" clip-rule="evenodd" d="M55.4378 28.8963C54.1397 29.7506 52.6171 30.2001 51.0631 30.1877C50.036 30.1878 49.019 29.9845 48.0708 29.5895C47.1227 29.1946 46.2621 28.6158 45.5387 27.8866C44.8153 27.1574 44.2435 26.2922 43.8561 25.341C43.4688 24.3897 43.2736 23.3711 43.2819 22.344C43.2819 20.79 43.7435 19.271 44.6082 17.9798C45.4729 16.6886 46.7016 15.6833 48.1385 15.0915C49.5754 14.4997 51.1558 14.3481 52.679 14.6558C54.2022 14.9636 55.5996 15.7169 56.6941 16.8201C57.7885 17.9233 58.5306 19.3268 58.8262 20.8524C59.1217 22.3781 58.9575 23.9571 58.3542 25.3892C57.7509 26.8214 56.7359 28.042 55.4378 28.8963ZM77.8745 35.8753C78.2373 35.3285 78.4327 34.6878 78.437 34.0316C78.4684 33.5651 78.4008 33.0972 78.2384 32.6587C78.0761 32.2202 77.8228 31.821 77.4951 31.4875C77.1674 31.1539 76.7729 30.8935 76.3374 30.7234C75.9019 30.5532 75.4352 30.4772 74.9682 30.5003C74.3022 30.5039 73.6513 30.6992 73.0932 31.0628L72.7495 31.3441L72.3745 31.7503L72.187 31.9691L64.1557 40.4066L50.8432 32.0628L50.2495 31.7503L49.812 31.5628H49.312C48.6123 31.4066 47.8867 31.4066 47.187 31.5628L30.7808 34.5941L29.9995 34.8128L29.2495 35.0628C28.7765 35.2922 28.3521 35.6105 27.9995 36.0003C27.6626 36.3991 27.3982 36.8539 27.2183 37.3441L24.6245 45.4066L22.2808 52.7191C22.1575 53.1136 22.0943 53.5245 22.0933 53.9378C22.0949 54.3667 22.1798 54.7913 22.3433 55.1878C22.5353 55.67 22.8444 56.0968 23.2427 56.4296C23.641 56.7624 24.1159 56.9907 24.6245 57.0941H25.312C25.9974 57.1276 26.6747 56.9346 27.2395 56.5449C27.8043 56.1552 28.2251 55.5905 28.437 54.9378L33.187 43.4691L37.937 42.6566L25.437 79.7191C25.2409 80.2997 25.1615 80.9133 25.2031 81.5247C25.2447 82.1362 25.4066 82.7334 25.6795 83.2821C25.9524 83.8308 26.331 84.3202 26.7934 84.7223C27.2559 85.1244 27.7932 85.4313 28.3745 85.6253C28.855 85.7995 29.3635 85.8842 29.8745 85.8753C30.847 85.8791 31.7965 85.5803 32.5915 85.0204C33.3866 84.4605 33.9879 83.6671 34.312 82.7503L41.1558 62.3441L41.4682 62.5628L50.8432 69.0628L54.5932 82.3128C54.8557 83.3149 55.4426 84.2018 56.2624 84.835C57.0822 85.4682 58.0887 85.8121 59.1245 85.8128C59.5249 85.8049 59.9232 85.7525 60.312 85.6566C61.5133 85.3409 62.5402 84.5613 63.1671 83.489C63.794 82.4168 63.9698 81.1395 63.6558 79.9378L59.8745 65.5003V65.1878C59.6558 64.9691 59.6558 64.7816 59.6558 64.5941V64.5941C59.3603 63.6684 58.7808 62.8593 57.9995 62.2816L50.2183 56.844L53.9995 44.9691L61.2183 49.5003C61.9642 49.9774 62.8328 50.2271 63.7182 50.2191H64.437C64.9385 50.1854 65.4276 50.0487 65.8739 49.8175C66.3202 49.5863 66.714 49.2655 67.0308 48.8753L77.4683 36.3753C77.6205 36.2231 77.7567 36.0555 77.8745 35.8753Z" fill="#1B2F4D"/>
</svg>
