<svg width="270" height="63" viewBox="0 0 270 63" fill="none" xmlns="http://www.w3.org/2000/svg">
<path fill-rule="evenodd" clip-rule="evenodd" d="M54.3259 15.7566V47.2566L27.163 62.9998V31.4998L54.3124 15.7566H54.3259Z" fill="#F94144"/>
<path fill-rule="evenodd" clip-rule="evenodd" d="M27.163 31.4998L0 47.2566V15.7566L27.163 31.4998Z" fill="#1B2F4D"/>
<path fill-rule="evenodd" clip-rule="evenodd" d="M54.3124 15.7568L27.163 31.5L0 15.7568V15.7432L27.163 0L54.3124 15.7568Z" fill="#FA6B6D"/>
<path d="M86.2832 15.7565C88.9468 15.6241 91.5868 16.3144 93.8481 17.7346C94.7649 18.4205 95.4946 19.3277 95.9694 20.3722C96.4443 21.4168 96.6489 22.5648 96.5644 23.71C96.6309 25.283 96.2197 26.8391 95.3852 28.1719C94.5508 29.5047 93.3326 30.5511 91.8923 31.1723C90.2849 31.8878 88.5439 32.2506 86.7857 32.2364L86.0523 29.6034C88.1484 29.5937 90.2288 29.9682 92.1911 30.7084C93.8591 31.3148 95.3456 32.3384 96.51 33.6825C97.5834 34.9404 98.1756 36.5413 98.1806 38.198C98.2127 39.6163 97.9004 41.021 97.2706 42.2907C96.6876 43.3771 95.8597 44.3115 94.8531 45.0192C93.8209 45.7573 92.66 46.2941 91.4306 46.6017C90.1568 46.9284 88.8473 47.0934 87.5327 47.0928H77.7133V15.7565H86.2832ZM87.0981 29.1669C87.716 29.2143 88.3365 29.1156 88.9096 28.8787C89.4828 28.6418 89.9926 28.2733 90.3984 27.8026C91.1088 26.9149 91.484 25.8036 91.4577 24.6649C91.4977 24.0769 91.395 23.4879 91.1584 22.9485C90.9218 22.4091 90.5585 21.9354 90.0996 21.5681C89.0373 20.8446 87.7685 20.4901 86.4869 20.5586H82.752V29.1259L87.0981 29.1669ZM87.2746 42.5909C88.2592 42.6012 89.238 42.4396 90.1675 42.1134C90.9712 41.8308 91.6843 41.336 92.2319 40.6809C92.7798 39.9743 93.0548 39.0924 93.006 38.198C93.0343 37.7331 92.9683 37.2672 92.8118 36.8286C92.6554 36.3901 92.4119 35.9881 92.096 35.6469C91.4685 34.9981 90.6814 34.5274 89.8144 34.2827C88.8671 34.0589 87.8937 33.9671 86.9215 34.0099H82.752V42.5909H87.2746Z" fill="#1B2F4D"/>
<path d="M108.122 28.9076L108.652 34.1054L108.53 33.3687C108.979 32.2765 109.688 31.3116 110.594 30.5584C111.441 29.8295 112.382 29.2192 113.392 28.7439C114.13 28.3625 114.94 28.1395 115.769 28.0891L115.443 32.9321C114.213 32.7846 112.969 33.0432 111.898 33.6688C110.897 34.2481 110.075 35.093 109.521 36.1108C108.964 37.0922 108.664 38.2004 108.652 39.3303V47.2156H103.858V28.9076H108.122Z" fill="#1B2F4D"/>
<path d="M128.467 47.7479C126.581 47.7889 124.714 47.3576 123.035 46.4928C121.542 45.6939 120.318 44.4693 119.517 42.9731C118.693 41.4162 118.277 39.6746 118.308 37.9118C118.274 36.1553 118.746 34.4263 119.666 32.9324C120.587 31.4555 121.868 30.2393 123.388 29.399C124.971 28.5019 126.758 28.0319 128.576 28.0348C130.843 27.9535 133.056 28.7384 134.769 30.2312C136.493 31.8746 137.634 34.0407 138.015 36.3975L123.333 41.4179L122.261 38.6894L133.683 34.5967L132.732 35.2106C132.421 34.3174 131.888 33.519 131.184 32.8914C130.35 32.202 129.287 31.8558 128.209 31.9228C127.252 31.8974 126.308 32.1534 125.493 32.6595C124.716 33.1535 124.083 33.8454 123.659 34.6649C123.198 35.5865 122.97 36.6078 122.994 37.6389C122.965 38.744 123.217 39.8382 123.727 40.8176C124.191 41.6647 124.877 42.3678 125.71 42.8503C126.577 43.3348 127.557 43.5796 128.549 43.5597C129.286 43.5639 130.017 43.4345 130.708 43.1777C131.399 42.9149 132.052 42.5617 132.65 42.1273L134.851 45.7288C133.878 46.3333 132.833 46.8101 131.74 47.1476C130.687 47.517 129.583 47.7195 128.467 47.7479Z" fill="#1B2F4D"/>
<path d="M150.442 47.7475C148.82 47.77 147.216 47.3954 145.77 46.6561C144.371 45.9437 143.22 44.8209 142.47 43.4366C141.617 41.8022 141.201 39.9739 141.261 38.1297C141.216 36.2445 141.681 34.3823 142.606 32.741C143.382 31.3197 144.526 30.1357 145.918 29.3144C147.309 28.493 148.896 28.0649 150.51 28.0754C151.99 28.0064 153.457 28.3714 154.734 29.1258C155.738 29.7627 156.602 30.5982 157.274 31.5814L157.015 32.2772L157.491 28.9076H161.973V47.2155H157.097V42.7545L157.572 43.9277C157.464 44.0914 157.233 44.3779 156.907 44.7735C155.916 45.8488 154.694 46.6838 153.335 47.2155C152.412 47.5721 151.431 47.7526 150.442 47.7475ZM151.8 43.764C152.614 43.7741 153.422 43.621 154.177 43.3138C154.881 43.0144 155.501 42.5459 155.983 41.9496C156.486 41.3342 156.852 40.6178 157.056 39.8487V35.8242C156.834 35.0887 156.443 34.4158 155.915 33.8597C155.384 33.2821 154.742 32.8182 154.028 32.4955C153.271 32.1753 152.458 32.0128 151.637 32.018C150.683 32.0197 149.746 32.2738 148.921 32.7547C148.093 33.2441 147.408 33.9456 146.938 34.7874C146.443 35.7032 146.195 36.7331 146.218 37.775C146.203 38.8228 146.471 39.8551 146.992 40.7627C147.481 41.6342 148.182 42.3666 149.03 42.8909C149.859 43.3897 150.807 43.6537 151.773 43.6548L151.8 43.764Z" fill="#1B2F4D"/>
<path d="M167.147 47.2976V13.533H171.969V47.2976H167.147ZM170.461 41.8407L169.999 37.175L181.068 28.594L184.002 31.1997L170.461 41.8407ZM176.451 35.0195L184.776 47.2976H179.167L173.273 37.748L176.451 35.0195Z" fill="#1B2F4D"/>
<path d="M188.783 15.7839H207.797V20.6406H193.835V29.5081H206.058V34.3511H193.835V47.2976H188.783V15.7839Z" fill="#1B2F4D"/>
<path d="M212.754 22.3734C212.75 22.0236 212.825 21.6775 212.973 21.3609C213.121 21.0443 213.339 20.7655 213.61 20.5453C214.132 20.074 214.809 19.8119 215.511 19.8087C216.207 19.8041 216.877 20.0678 217.385 20.5453C217.655 20.7744 217.871 21.061 218.016 21.3843C218.162 21.7077 218.234 22.0595 218.227 22.4143C218.231 22.7607 218.157 23.1035 218.011 23.4175C217.865 23.7315 217.652 24.0087 217.385 24.2287C216.877 24.7063 216.207 24.97 215.511 24.9654C214.809 24.9622 214.132 24.7 213.61 24.2287C213.336 24.0051 213.117 23.7217 212.969 23.4003C212.82 23.0788 212.747 22.7276 212.754 22.3734ZM212.971 28.9899H217.793V47.2978H212.971V28.9899Z" fill="#1B2F4D"/>
<path d="M227.938 28.9897L228.413 34.1874L228.291 33.4507C228.737 32.3566 229.446 31.3909 230.356 30.6404C231.199 29.903 232.14 29.2877 233.153 28.8123C233.895 28.4403 234.703 28.2223 235.53 28.1711L235.218 33.0142C233.988 32.8802 232.748 33.1379 231.673 33.7508C230.673 34.3302 229.85 35.175 229.296 36.1928C228.746 37.1811 228.457 38.2939 228.454 39.426V47.2976H223.673V28.9897H227.938Z" fill="#1B2F4D"/>
<path d="M245.906 47.7476C244.559 47.7526 243.223 47.5027 241.968 47.0109C240.775 46.5569 239.705 45.8279 238.844 44.8827L240.868 42.1543C241.576 42.8353 242.381 43.4056 243.258 43.8459C243.965 44.1953 244.739 44.3862 245.526 44.4053C246.026 44.4085 246.524 44.3442 247.006 44.2143C247.41 44.1071 247.777 43.8899 248.066 43.5867C248.335 43.2729 248.476 42.8683 248.46 42.4544C248.472 42.1974 248.426 41.9409 248.325 41.7045C248.224 41.4681 248.07 41.258 247.876 41.0902C247.414 40.7354 246.895 40.4632 246.341 40.2853L244.358 39.5623C242.994 39.2051 241.765 38.4504 240.827 37.3931C240.055 36.4591 239.64 35.2784 239.659 34.0644C239.669 33.0544 239.949 32.0656 240.47 31.2016C240.991 30.3376 241.733 29.6301 242.62 29.1532C243.794 28.548 245.104 28.2567 246.422 28.3074C247.634 28.2897 248.842 28.4505 250.008 28.7849C251.054 29.1045 252.03 29.6181 252.887 30.2992L251.04 33.2459C250.508 32.7422 249.886 32.3442 249.207 32.0727C248.599 31.808 247.952 31.6467 247.292 31.5952C246.828 31.5628 246.364 31.6375 245.934 31.8135C245.563 31.9696 245.226 32.1966 244.942 32.4819C244.817 32.6121 244.719 32.766 244.654 32.9347C244.588 33.1033 244.557 33.2833 244.562 33.4642C244.54 33.7236 244.583 33.9845 244.687 34.2229C244.792 34.4612 244.954 34.6694 245.159 34.8284C245.651 35.2105 246.215 35.4889 246.816 35.6469C247.495 35.8516 248.174 36.0698 248.786 36.3018C249.609 36.5644 250.398 36.9263 251.135 37.3795C251.79 37.8011 252.343 38.3652 252.751 39.0302C253.166 39.7702 253.373 40.6096 253.349 41.4585C253.353 42.5361 253.072 43.5954 252.534 44.528C251.953 45.5123 251.112 46.3151 250.103 46.8472C248.8 47.4928 247.358 47.8022 245.906 47.7476Z" fill="#1B2F4D"/>
<path d="M260.439 20.9409H265.26V28.9899H270V32.7415H265.26V47.2978H260.439V32.7415H257.288V28.9899H260.439V20.9409Z" fill="#1B2F4D"/>
</svg>
