<svg width="80" height="80" viewBox="0 0 80 80" fill="none" xmlns="http://www.w3.org/2000/svg">
<path d="M40 80C62.0914 80 80 62.0914 80 40C80 17.9086 62.0914 0 40 0C17.9086 0 0 17.9086 0 40C0 62.0914 17.9086 80 40 80Z" fill="#F94144"/>
<path d="M40.0723 0V79.9981C62.1302 79.9589 80 62.0662 80 39.9991C80 17.9319 62.1304 0.0392065 40.0723 0Z" fill="#DE070B"/>
<path d="M61.8673 29.9061H50.8331C50.4496 29.9061 50.1388 29.5953 50.1388 29.2118V18.1776C50.1388 16.9402 49.1357 15.9372 47.8984 15.9372H32.2464C31.009 15.9372 30.006 16.9403 30.006 18.1776V29.2118C30.006 29.5953 29.6952 29.9061 29.3117 29.9061H18.2775C17.0401 29.9061 16.0371 30.9092 16.0371 32.1465V47.7985C16.0371 49.0359 17.0402 50.0389 18.2775 50.0389H29.3117C29.6952 50.0389 30.006 50.3497 30.006 50.7332V61.7673C30.006 63.0047 31.0091 64.0076 32.2464 64.0076H47.8984C49.1358 64.0076 50.1388 63.0045 50.1388 61.7673V50.7332C50.1388 50.3497 50.4496 50.0389 50.8331 50.0389H61.8673C63.1047 50.0389 64.1077 49.0358 64.1077 47.7985V32.1467C64.1077 30.9092 63.1047 29.9061 61.8673 29.9061Z" fill="white"/>
<path d="M61.8672 29.9061H50.833C50.4495 29.9061 50.1387 29.5953 50.1387 29.2118V18.1776C50.1387 16.9402 49.1355 15.9372 47.8983 15.9372H40.0723V64.0078H47.8983C49.1357 64.0078 50.1387 63.0047 50.1387 61.7674V50.7334C50.1387 50.3499 50.4495 50.039 50.833 50.039H61.8672C63.1046 50.039 64.1076 49.0359 64.1076 47.7986V32.1467C64.1076 30.9092 63.1046 29.9061 61.8672 29.9061Z" fill="white"/>
</svg>
