<svg width="100" height="100" viewBox="0 0 100 100" fill="none" xmlns="http://www.w3.org/2000/svg">
<path fill-rule="evenodd" clip-rule="evenodd" d="M38.292 75.4151C38.6771 76.8541 39.2076 78.2502 39.8754 79.5818H17.0837C14.8736 79.5818 12.7539 78.7038 11.1911 77.141C9.62833 75.5782 8.75037 73.4586 8.75037 71.2485V29.5818H12.917H17.0837H75.417H79.5837H83.7504V42.0818C82.4315 41.197 81.0372 40.4302 79.5837 39.7902L79.5837 39.8735C78.2521 39.2057 76.856 38.6752 75.4171 38.2901C72.7123 37.4864 69.9053 37.0793 67.0837 37.0817C59.1306 37.0928 51.5064 40.257 45.8826 45.8807C40.2589 51.5044 37.0947 59.1287 37.0837 67.0818C37.0712 68.4778 37.1828 69.8722 37.4171 71.2485C37.5773 72.6617 37.8703 74.0568 38.292 75.4151Z" fill="#1B2F4D"/>
<path fill-rule="evenodd" clip-rule="evenodd" d="M17.0837 21.2484H75.417H83.7504C83.7504 19.0382 82.8724 16.9186 81.3096 15.3558C79.7468 13.793 77.6272 12.915 75.417 12.915H17.0837C14.8736 12.915 12.7539 13.793 11.1911 15.3558C9.62833 16.9186 8.75037 19.0382 8.75037 21.2484H17.0837Z" fill="#1B2F4D"/>
<path fill-rule="evenodd" clip-rule="evenodd" d="M67.0836 92.0818C62.1391 92.0818 57.3055 90.6156 53.1943 87.8686C49.0831 85.1215 45.8788 81.2171 43.9866 76.6489C42.0944 72.0808 41.5994 67.0541 42.564 62.2046C43.5286 57.355 45.9096 52.9004 49.4059 49.4041C52.9022 45.9078 57.3569 43.5268 62.2064 42.5622C67.0559 41.5975 72.0826 42.0926 76.6507 43.9848C81.2189 45.877 85.1234 49.0812 87.8704 53.1925C90.6174 57.3037 92.0836 62.1372 92.0836 67.0818C92.0836 73.7122 89.4497 80.0711 84.7613 84.7595C80.0729 89.4479 73.714 92.0818 67.0836 92.0818ZM62.9169 54.5818V66.7029C62.9055 66.8286 62.8997 66.9553 62.8997 67.0825C62.8997 68.1921 63.3405 69.2562 64.1251 70.0408L74.5418 80.4575C74.9311 80.8437 75.3928 81.1493 75.9004 81.3566C76.4081 81.564 76.9517 81.6691 77.5001 81.6659C78.0484 81.6691 78.592 81.564 79.0997 81.3566C79.6073 81.1493 80.069 80.8437 80.4584 80.4575C80.8489 80.0702 81.1589 79.6094 81.3704 79.1016C81.582 78.5939 81.6909 78.0493 81.6909 77.4992C81.6909 76.9492 81.582 76.4045 81.3704 75.8968C81.1589 75.389 80.8489 74.9283 80.4584 74.5409L71.2503 65.3328V54.5818C71.2503 53.4767 70.8112 52.417 70.0298 51.6356C69.2484 50.8542 68.1887 50.4151 67.0836 50.4151C65.9785 50.4151 64.9188 50.8542 64.1374 51.6356C63.356 52.417 62.9169 53.4767 62.9169 54.5818Z" fill="#B3C7E5"/>
<path d="M29.5837 25.415C28.4786 25.415 27.4188 24.9759 26.6374 24.1945C25.856 23.4131 25.417 22.3534 25.417 21.2483V12.915C25.417 11.8099 25.856 10.7501 26.6374 9.96874C27.4188 9.18734 28.4786 8.74829 29.5837 8.74829C30.6887 8.74829 31.7485 9.18734 32.5299 9.96874C33.3113 10.7501 33.7503 11.8099 33.7503 12.915V21.2483C33.7503 22.3534 33.3113 23.4131 32.5299 24.1945C31.7485 24.9759 30.6887 25.415 29.5837 25.415Z" fill="#1B2F4D"/>
<path d="M62.917 25.415C61.812 25.415 60.7522 24.9759 59.9708 24.1945C59.1894 23.4131 58.7504 22.3534 58.7504 21.2483V12.915C58.7504 11.8099 59.1894 10.7501 59.9708 9.96874C60.7522 9.18734 61.812 8.74829 62.917 8.74829C64.0221 8.74829 65.0818 9.18734 65.8632 9.96874C66.6447 10.7501 67.0837 11.8099 67.0837 12.915V21.2483C67.0837 22.3534 66.6447 23.4131 65.8632 24.1945C65.0818 24.9759 64.0221 25.415 62.917 25.415Z" fill="#1B2F4D"/>
</svg>
