<svg width="100" height="100" viewBox="0 0 100 100" fill="none" xmlns="http://www.w3.org/2000/svg">
<path d="M86.7554 52.418C86.7637 60.1767 84.4699 67.7635 80.1645 74.2181C75.8591 80.6727 69.7356 85.705 62.569 88.6779C55.4024 91.6509 47.5149 92.4309 39.9049 90.9192C32.2948 89.4076 25.3042 85.6723 19.8179 80.186C14.3317 74.6997 10.5963 67.7091 9.08467 60.0991C7.57303 52.489 8.35305 44.6015 11.326 37.4349C14.299 30.2684 19.3312 24.1449 25.7858 19.8395C32.2404 15.5341 39.8272 13.2403 47.586 13.2486V52.418H86.7554Z" fill="#B3C7E5"/>
<path d="M91.6662 42.6326H57.3669V8.3333C64.4563 8.3215 71.3738 10.5147 77.1613 14.6092C82.9487 18.7036 87.3195 24.4966 89.6682 31.1856C91.0145 34.8508 91.6913 38.7281 91.6662 42.6326Z" fill="#1B2F4D"/>
</svg>
